Deception.2008.720p.BluRay.x264-LXGZ (aKa) Aciaeiig



Summary:

An accountant is introduced to a mysterious sex club known as The List by his lawyer friend. But in this new world, he soon becomes the prime suspect in a woman's disappearance and a multi-million dollar heist.




Cast:

Hugh Jackman - Wyatt Bose
Ewan McGregor - Jonathan McQuarry
Michelle Williams - S
_andmore_



*INFO*
****************************************************************


Video
ID                               : 1
*Source*                         : Blu-Ray
Format                           : AVC
Format/Info                      : Advanced Video Codec
Format profile                   : High@L3.1
Format settings, CABAC           : Yes
Format settings, ReFrames        : 4 frames
Format settings, GOP             : M=4, N=32
Muxing mode                      : Container profile=Unknown@3.1
Codec ID                         : V_MPEG4/ISO/AVC
Duration                         : 1h 47mn
Bit rate                         : 2 898 Kbps
Nominal bit rate                 : 3 049 Kbps
Width                            : 1 280 pixels
Height                           : 720 pixels
Display aspect ratio             : 16:9
Frame rate                       : 23.976 fps
Color space                      : YUV
Chroma subsampling               : 4:2:0
Bit depth                        : 8 bits
Scan type                        : Progressive
Bits/(Pixel*Frame)               : 0.131
Stream size                      : 2.18 GiB (88%)
Writing library                  : x264 core 104 r1703 cd21d05


Audio
ID                               : 2
Format                           : AC-3
Format/Info                      : Audio Coding 3
Mode extension                   : CM (complete main)
Muxing mode                      : Header stripping
Codec ID                         : A_AC3
Duration                         : 1h 47mn
Bit rate mode                    : Constant
Bit rate                         : 320 Kbps
Channel(s)                       : 6 channels
Channel positions                : Front: L C R, Side: L R, LFE
Sampling rate                    : 48.0 KHz
Bit depth                        : 16 bits
Stream size                      : 247 MiB (10%)
Language                         : English

Text
ID                               : 3
Format                           : SRT
Codec ID                         : S_TEXT/UTF8
Codec ID/Info                    : UTF-8 Plain Text
Language                         : English


****************************************************************
 
http://www.imdb.com/title/tt0800240/


Screenshots:

 
http://image.bayimg.com/paacaaada.jpg 
http://image.bayimg.com/paaccaada.jpg 
http://image.bayimg.com/paacbaada.jpg

Thumbnails:
 
http://image.bayimg.com/paacdaada.jpg